<?xml version="1.0" encoding="utf-8"?>
<!-- Generator: Adobe Illustrator 25.0.1, SVG Export Plug-In . SVG Version: 6.00 Build 0)  -->
<svg version="1.1" id="sky" xmlns="http://www.w3.org/2000/svg" xmlns:xlink="http://www.w3.org/1999/xlink" x="0px" y="0px"
	 viewBox="0 0 1000 400" style="enable-background:new 0 0 1000 400;" xml:space="preserve">
<style type="text/css">
	.st0{fill:url(#SVGID_1_);}
	.st1{fill:url(#SVGID_2_);}
	.st2{opacity:0.5;fill:url(#SVGID_3_);}
	.st3{fill:url(#SVGID_4_);}
	.st4{fill:url(#SVGID_5_);}
	.st5{fill:#0D0C1C;}
	.st6{opacity:0.6;}
	.st7{fill:url(#SVGID_6_);}
	.st8{fill:url(#SVGID_7_);}
	.st9{fill:#FFFFFF;}
	.st10{fill:url(#SVGID_8_);}
	.st11{fill:url(#SVGID_9_);}
	.st12{opacity:0.5;}
	.st13{opacity:0.8;fill:#FFFFFF;}
	.st14{opacity:0.5;fill:#FFFFFF;}
	.st15{opacity:0.3;fill:#FFFFFF;}
	.st16{opacity:0.4;fill:url(#SVGID_10_);}
	.st17{opacity:0.5;fill:none;stroke:#0D0C1C;stroke-width:0.5;stroke-linecap:round;stroke-miterlimit:10;}
	.st18{opacity:0.3;fill:none;stroke:#0D0C1C;stroke-width:0.25;stroke-linecap:round;stroke-miterlimit:10;}
	.st19{fill:none;stroke:#0D0C1C;stroke-width:0.5;stroke-linecap:round;stroke-miterlimit:10;}
	.st20{fill:url(#SVGID_11_);}
	.st21{fill:url(#SVGID_12_);}
	.st22{clip-path:url(#SVGID_14_);}
	.st23{fill-rule:evenodd;clip-rule:evenodd;fill:#0D0C1C;}
	.st24{clip-path:url(#SVGID_20_);fill-rule:evenodd;clip-rule:evenodd;fill:#0D0C1C;}
</style>
<g>
	
		<linearGradient id="SVGID_1_" gradientUnits="userSpaceOnUse" x1="492.7781" y1="277.3898" x2="492.7781" y2="-36.6102" gradientTransform="matrix(-1 0 0 1 993 0)">
		<stop  offset="0" style="stop-color:#FF5050"/>
		<stop  offset="9.803919e-02" style="stop-color:#FF64A3"/>
		<stop  offset="0.2304" style="stop-color:#E250BF"/>
		<stop  offset="0.3578" style="stop-color:#AF2EAC"/>
		<stop  offset="0.5539" style="stop-color:#501F7F"/>
		<stop  offset="0.7206" style="stop-color:#18125E"/>
		<stop  offset="0.8676" style="stop-color:#0F0B2D"/>
		<stop  offset="1" style="stop-color:#0D0C1C"/>
	</linearGradient>
	<rect x="0.4" y="-36.6" class="st0" width="999.6" height="314"/>
	
		<linearGradient id="SVGID_2_" gradientUnits="userSpaceOnUse" x1="505.2219" y1="586.3898" x2="505.2219" y2="400.3898" gradientTransform="matrix(1 0 0 -1 -5 863.7797)">
		<stop  offset="0" style="stop-color:#FF5050"/>
		<stop  offset="9.803919e-02" style="stop-color:#FF64A3"/>
		<stop  offset="0.2304" style="stop-color:#E250BF"/>
		<stop  offset="0.3578" style="stop-color:#AF2EAC"/>
		<stop  offset="0.5539" style="stop-color:#501F7F"/>
		<stop  offset="0.7206" style="stop-color:#18125E"/>
		<stop  offset="0.8676" style="stop-color:#0F0B2D"/>
		<stop  offset="1" style="stop-color:#0D0C1C"/>
	</linearGradient>
	<rect x="0.4" y="277.4" class="st1" width="999.6" height="186"/>
	
		<radialGradient id="SVGID_3_" cx="597.9998" cy="150.3903" r="600.2698" gradientTransform="matrix(-1.3327 0 0 0.7 1323.4124 -18.8834)" gradientUnits="userSpaceOnUse">
		<stop  offset="0" style="stop-color:#FFFFFF"/>
		<stop  offset="0.2732" style="stop-color:#AFAEB4"/>
		<stop  offset="0.5327" style="stop-color:#696973"/>
		<stop  offset="0.7475" style="stop-color:#373744"/>
		<stop  offset="0.9095" style="stop-color:#191827"/>
		<stop  offset="1" style="stop-color:#0D0C1C"/>
	</radialGradient>
	<rect x="0" y="-36.6" class="st2" width="999.6" height="500"/>
	
		<radialGradient id="SVGID_4_" cx="498.1898" cy="213.5269" r="124.2612" gradientTransform="matrix(-1.3507 0 0 1.0135 1328.7379 68.41)" gradientUnits="userSpaceOnUse">
		<stop  offset="0" style="stop-color:#FFFFFF"/>
		<stop  offset="1" style="stop-color:#FFFFFF;stop-opacity:0"/>
	</radialGradient>
	<ellipse class="st3" cx="644.2" cy="264.3" rx="205.2" ry="154"/>
	
		<radialGradient id="SVGID_5_" cx="550.8124" cy="213.5269" r="124.2612" gradientTransform="matrix(-1.3507 0 0 1.0135 1328.7379 68.41)" gradientUnits="userSpaceOnUse">
		<stop  offset="0" style="stop-color:#FFFFFF"/>
		<stop  offset="1" style="stop-color:#FFFFFF;stop-opacity:0"/>
	</radialGradient>
	<ellipse class="st4" cx="573.1" cy="264.3" rx="205.2" ry="154"/>
	<path class="st5" d="M1000,284.4H0.4v-18l6.2-7.3h8l3.1,2l4.9,3.3h4.4h6.2l6.2,1.4l8.9,3l9.8,1l10.7-1l9.3,3l5.3-1.7l6.7,1.7
		l5.8,2.3l11.6,3.3l8,2.7l9.8,1.7l12-1.7l17.3,1.3l7.6-0.7h12h12l6.2-1.3l5.8,1.3l12,0c0,0,10.7-1,12-1.3s22.2,0,22.2,0l5.8,1.7
		l12-2.7l9.8,2l34.2-1l8,2h14.7l21.8-2.3l15.5,0.7l37.3-0.7l14.2-3.7l7.1-0.7l17.8-8.7h17.8c0,0,6.2-1.1,7.6-1.7
		c1.3-0.6,22.2,4.4,22.2,4.4l22.2,0.3l11.1-0.7l22.7-4h25.3l36.9-1.6l10.7-3.7l7.6,2l10.2-3.3l24-15l5.8,1.3l0.9-1.3l8.9-4.7
		l14.2-1.3h12l5.8-2.3l4.9-4.3l18.2-4c0,0,9.3,1.7,12,2.3s19.1,7,20.4,7.3c1.3,0.3,12.4,0.7,12.4,0.7l13.8,0.7l21.3,1.3l21.8,4.3
		c0,0,13.3,5.3,15.1,6c1.8,0.7,16.4-1,16.4-1l26.2,4.3c0,0,6.2-1,7.6-0.7c1.3,0.3,16.4,1.3,18.2,2.3s14.2,5.3,16,5.7
		s8.4-4.2,8.4-4.2h10.7l16.9-8.5l14.7-7l11.1-3.3l5.8-7V284.4z"/>
	<g class="st6">
		<g>
			<linearGradient id="SVGID_6_" gradientUnits="userSpaceOnUse" x1="139.5464" y1="108.9657" x2="302.4754" y2="108.9657">
				<stop  offset="0.2941" style="stop-color:#FFFFFF"/>
				<stop  offset="1" style="stop-color:#FFFFFF;stop-opacity:0"/>
			</linearGradient>
			<path class="st7" d="M141.8,65l159.3,87.6c0.1,0.1,0.2,0.2,0.1,0.3c-0.1,0.1-0.2,0.2-0.3,0.1L140.3,67.7c-0.7-0.4-1-1.3-0.6-2
				S141,64.6,141.8,65C141.8,65,141.8,65,141.8,65z"/>
		</g>
		<g>
			<linearGradient id="SVGID_7_" gradientUnits="userSpaceOnUse" x1="139.5471" y1="108.9657" x2="302.4761" y2="108.9657">
				<stop  offset="0.2941" style="stop-color:#FFFFFF"/>
				<stop  offset="1" style="stop-color:#FFFFFF;stop-opacity:0"/>
			</linearGradient>
			<path class="st8" d="M141.8,65l159.3,87.6c0.1,0.1,0.2,0.2,0.1,0.3c-0.1,0.1-0.2,0.2-0.3,0.1L140.3,67.7c-0.7-0.4-1-1.3-0.6-2
				C140.1,64.9,141,64.6,141.8,65C141.8,65,141.8,65,141.8,65z"/>
		</g>
		<ellipse class="st9" cx="141.1" cy="66.4" rx="2.1" ry="1.6"/>
		<g>
			<linearGradient id="SVGID_8_" gradientUnits="userSpaceOnUse" x1="139.5464" y1="108.9657" x2="302.4754" y2="108.9657">
				<stop  offset="0.2941" style="stop-color:#FFFFFF"/>
				<stop  offset="1" style="stop-color:#FFFFFF;stop-opacity:0"/>
			</linearGradient>
			<path class="st10" d="M141.8,65l159.3,87.6c0.1,0.1,0.2,0.2,0.1,0.3c-0.1,0.1-0.2,0.2-0.3,0.1L140.3,67.7c-0.7-0.4-1-1.3-0.6-2
				S141,64.6,141.8,65C141.8,65,141.8,65,141.8,65z"/>
		</g>
		<g>
			<linearGradient id="SVGID_9_" gradientUnits="userSpaceOnUse" x1="139.5471" y1="108.9657" x2="302.4761" y2="108.9657">
				<stop  offset="0.2941" style="stop-color:#FFFFFF"/>
				<stop  offset="1" style="stop-color:#FFFFFF;stop-opacity:0"/>
			</linearGradient>
			<path class="st11" d="M141.8,65l159.3,87.6c0.1,0.1,0.2,0.2,0.1,0.3c-0.1,0.1-0.2,0.2-0.3,0.1L140.3,67.7c-0.7-0.4-1-1.3-0.6-2
				C140.1,64.9,141,64.6,141.8,65C141.8,65,141.8,65,141.8,65z"/>
		</g>
	</g>
	<g class="st12">
		<path class="st13" d="M848.1,22.7C848.1,22.7,848.2,22.7,848.1,22.7C848.2,22.7,848.2,22.7,848.1,22.7c-0.3,0,0.2,0.1,0.9-0.1
			c0,0-0.1,0-0.1,0C848.6,22.7,848.3,22.7,848.1,22.7z"/>
		<path class="st13" d="M851.7,20.1c0-1.4-1.6-2.5-3.4-2.6c-1.3,0-2.9,0.4-3.4,1.3c-0.5,0.9-0.7,1.7,0,2.5c0.7,0.9,1.9,1.3,3.2,1.3
			c0,0,0,0,0.1,0c0,0,0,0,0,0c0,0,0.1,0,0.1,0c0,0,0,0,0,0c0,0,0.1,0,0.1,0c0.1,0,0.3,0,0.4,0c-0.1,0-0.2,0-0.3,0c0.1,0,0.2,0,0.4,0
			c0.1,0,0.1,0,0.2,0c0,0-0.1,0-0.1,0C850.5,22.4,851.7,21.4,851.7,20.1z"/>
	</g>
	<g class="st12">
		<path class="st13" d="M285.7,8.7C285.8,8.7,285.8,8.7,285.7,8.7C285.8,8.7,285.8,8.7,285.7,8.7c-0.3,0,0.2,0.1,0.9-0.1
			c0,0-0.1,0-0.1,0C286.2,8.6,286,8.7,285.7,8.7z"/>
		<path class="st13" d="M289.3,6.1c0-1.4-1.6-2.5-3.4-2.6c-1.3,0-2.9,0.4-3.4,1.3c-0.5,0.9-0.7,1.7,0,2.5c0.7,0.9,1.9,1.3,3.2,1.3
			c0,0,0,0,0.1,0c0,0,0,0,0,0c0,0,0.1,0,0.1,0c0,0,0,0,0,0c0,0,0.1,0,0.1,0c0.1,0,0.3,0,0.4,0c-0.1,0-0.2,0-0.3,0c0.1,0,0.2,0,0.4,0
			c0.1,0,0.1,0,0.2,0c0,0-0.1,0-0.1,0C288.1,8.3,289.3,7.4,289.3,6.1z"/>
	</g>
	<path class="st14" d="M809,29.7c-0.1-0.1-0.3-0.3-0.4-0.4c-0.5-0.5-1.7-0.7-2.5-0.5c-1.1,0.2-1.9,1-1.9,1.9c0,0.7,0.5,1.3,1.3,1.7
		c0.9,0.4,2.4,0.4,3.1-0.3c0.1-0.1,0.3-0.3,0.4-0.4C809.7,31,809.7,30.4,809,29.7z"/>
	<path class="st15" d="M484.2,160.8c-0.1-0.1-0.3-0.3-0.4-0.4c-0.5-0.5-1.7-0.7-2.5-0.5c-1.1,0.2-1.9,1-1.9,1.9
		c0,0.7,0.5,1.3,1.3,1.7c0.9,0.4,2.4,0.4,3.1-0.3c0.1-0.1,0.3-0.3,0.4-0.4C484.9,162.1,484.9,161.5,484.2,160.8z"/>
	<path class="st14" d="M48.3,100c-0.1-0.1-0.3-0.3-0.4-0.4c-0.5-0.5-1.7-0.7-2.5-0.5c-1.1,0.2-1.9,1-1.9,1.9c0,0.7,0.5,1.3,1.3,1.7
		c0.9,0.4,2.4,0.4,3.1-0.3c0.1-0.1,0.3-0.3,0.4-0.4C49,101.3,49,100.6,48.3,100z"/>
	<path class="st15" d="M517.7,149.6c-0.1-0.1-0.3-0.3-0.4-0.4c-0.5-0.5-1.7-0.7-2.5-0.5c-1.1,0.2-1.9,1-1.9,1.9
		c0,0.7,0.5,1.3,1.3,1.7c0.9,0.4,2.4,0.4,3.1-0.3c0.1-0.1,0.3-0.3,0.4-0.4C518.4,150.9,518.4,150.2,517.7,149.6z"/>
	<path class="st14" d="M947.6,107.8c-0.2,0-0.4,0-0.7,0c-4.4-0.2-4.4,5.2,0,5.1c0.2,0,0.4,0,0.7,0
		C951.9,112.7,951.9,108,947.6,107.8z"/>
	<path class="st14" d="M62.6,78c-4.4,0-4.4,5.2,0,5.2C67.1,83.2,67.1,78,62.6,78z"/>
	<path class="st5" d="M243.7,322.9c-4.6-0.3-21.7-10.1-23-12.1l97.4,5.4c0,0-2.1,5.2-6.2,6.7H243.7z"/>
	<linearGradient id="SVGID_10_" gradientUnits="userSpaceOnUse" x1="269.3924" y1="317.8898" x2="269.3924" y2="364.4712">
		<stop  offset="0.4412" style="stop-color:#0D0C1C"/>
		<stop  offset="0.4508" style="stop-color:#1A1A29"/>
		<stop  offset="0.4882" style="stop-color:#4A4955"/>
		<stop  offset="0.5287" style="stop-color:#75757E"/>
		<stop  offset="0.5716" style="stop-color:#9A9AA1"/>
		<stop  offset="0.6173" style="stop-color:#BAB9BE"/>
		<stop  offset="0.6667" style="stop-color:#D3D3D6"/>
		<stop  offset="0.7214" style="stop-color:#E7E7E8"/>
		<stop  offset="0.7841" style="stop-color:#F5F4F5"/>
		<stop  offset="0.8618" style="stop-color:#FDFDFD"/>
		<stop  offset="1" style="stop-color:#FFFFFF"/>
	</linearGradient>
	<path class="st16" d="M243.7,322.8c-4.6,0.3-21.7,10.1-23,12.1l97.4-5.4c0,0-2.1-5.2-6.2-6.7H243.7z"/>
	<path class="st17" d="M240.6,322c-11.8,0-10.4,1.3,4,2c14.4,0.7,87.1,1.5,87.1,1.5"/>
	<path class="st17" d="M247.9,325.9c12.9,0.8,107.3,2.8,111.3,3"/>
	<line class="st17" x1="312.1" y1="319.9" x2="345.2" y2="319.9"/>
	<line class="st18" x1="328.6" y1="329.5" x2="351.5" y2="330.1"/>
	<line class="st18" x1="330.5" y1="319" x2="351.5" y2="319"/>
	<line class="st19" x1="221.6" y1="311.4" x2="205.2" y2="323.4"/>
	<path class="st17" d="M209.8,323.5c0,0.5-2,0.9-4.6,0.9c-2.5,0-4.6-0.4-4.6-0.9s2-0.9,4.6-0.9C207.8,322.5,209.8,323,209.8,323.5z"
		/>
	<path class="st18" d="M212.2,323.6c0,0.9-3.1,1.6-7,1.6c-3.9,0-7-0.7-7-1.6c0-0.9,3.1-1.6,7-1.6C209.1,322,212.2,322.8,212.2,323.6
		z"/>
	<g>
		<linearGradient id="SVGID_11_" gradientUnits="userSpaceOnUse" x1="707.1207" y1="166.8782" x2="832.0734" y2="166.8782">
			<stop  offset="0" style="stop-color:#FFFFFF;stop-opacity:0"/>
			<stop  offset="0.5392" style="stop-color:#FFFFFF"/>
			<stop  offset="1" style="stop-color:#FFFFFF;stop-opacity:0"/>
		</linearGradient>
		<path class="st20" d="M707.6,171.6c10.1-2.4,20.4-4.2,30.7-5.6c5.1-0.7,10.3-1.3,15.5-1.9l7.8-0.7l7.8-0.6
			c10.4-0.6,20.8-1.1,31.2-1c5.2,0,10.4,0.1,15.6,0.3c2.6,0.1,5.2,0.2,7.8,0.4l7.8,0.5c0.1,0,0.2,0.1,0.2,0.2c0,0.1-0.1,0.2-0.2,0.2
			c-10.4-0.5-20.7-0.8-31.1-0.7c-10.4,0-20.8,0.5-31.1,1.2c-10.4,0.6-20.7,1.7-31,3c-5.1,0.6-10.3,1.4-15.4,2.3
			c-5.1,0.9-10.2,1.8-15.3,2.9c-0.1,0-0.2,0-0.2-0.1C707.4,171.7,707.5,171.6,707.6,171.6z"/>
	</g>
	<g>
		<linearGradient id="SVGID_12_" gradientUnits="userSpaceOnUse" x1="121.7046" y1="208.7021" x2="188.9077" y2="223.9815">
			<stop  offset="0" style="stop-color:#FFFFFF;stop-opacity:0"/>
			<stop  offset="0.5392" style="stop-color:#FFFFFF"/>
			<stop  offset="1" style="stop-color:#FFFFFF;stop-opacity:0"/>
		</linearGradient>
		<path class="st21" d="M121.2,212.8c2.9-0.2,5.7-0.3,8.6-0.4c2.9,0,5.7,0,8.6,0.1c5.7,0.1,11.5,0.5,17.2,1.1
			c5.7,0.6,11.4,1.3,17,2.3c2.8,0.5,5.6,1.1,8.4,1.6c2.8,0.6,5.6,1.3,8.4,2c0.1,0,0.2,0.1,0.1,0.2c0,0.1-0.1,0.2-0.2,0.1l0,0
			c-5.6-1.2-11.2-2.3-16.9-3.1c-5.6-0.9-11.3-1.6-17-2.2c-5.7-0.6-11.4-1-17.1-1.2c-5.7-0.2-11.4-0.3-17.1-0.1l0,0
			c-0.1,0-0.2-0.1-0.2-0.2C121,212.9,121.1,212.9,121.2,212.8z"/>
	</g>
</g>
<g>
	<g>
		<g>
			<g>
				<defs>
					<rect id="SVGID_13_" x="33.6" y="-13.2" width="1000" height="440.7"/>
				</defs>
				<clipPath id="SVGID_14_">
					<use xlink:href="#SVGID_13_"  style="overflow:visible;"/>
				</clipPath>
				<g class="st22">
				</g>
			</g>
		</g>
		<g>
			<g>
				<defs>
					<rect id="SVGID_15_" x="33.6" y="-13.2" width="1000" height="440.7"/>
				</defs>
				<clipPath id="SVGID_16_">
					<use xlink:href="#SVGID_15_"  style="overflow:visible;"/>
				</clipPath>
			</g>
		</g>
		<g>
			<g>
				<defs>
					<rect id="SVGID_17_" x="33.6" y="-13.2" width="1000" height="440.7"/>
				</defs>
				<clipPath id="SVGID_18_">
					<use xlink:href="#SVGID_17_"  style="overflow:visible;"/>
				</clipPath>
			</g>
		</g>
	</g>
	<polygon class="st23" points="439.3,128.1 470.8,127.5 485.8,146.6 468.1,130.8 444.6,134.2 436.1,139.2 433.3,132.8 411.1,113.4 
		392,110.3 415.1,111 	"/>
</g>
<polygon class="st23" points="248.9,228.6 263.7,212 282.8,212 264.5,214.8 255.2,228.4 254.2,234.7 248.9,233.6 226.2,237.2 
	215.1,245.9 226.7,234.2 "/>
<polygon class="st23" points="317.7,203 329.7,214.8 331.9,224.5 329.7,214.8 339.2,200.5 335.4,214.8 334.2,223.5 332.5,228.6 
	330.2,223.7 327.9,215.6 "/>
<g>
	<g>
		<defs>
			<rect id="SVGID_19_" x="33.6" y="-13.2" width="1000" height="440.7"/>
		</defs>
		<clipPath id="SVGID_20_">
			<use xlink:href="#SVGID_19_"  style="overflow:visible;"/>
		</clipPath>
		<polygon class="st24" points="282.8,244.2 286.1,239.7 296.4,242 305,238.4 309.3,241.3 305.1,240 297.9,243.2 297,244.8 
			295.4,243.1 286.8,241.6 		"/>
	</g>
</g>
<g>
	<polygon class="st23" points="709.6,83.8 718.2,95.3 721.3,95.3 727.4,87.5 721.1,92 	"/>
	<polygon class="st23" points="643.1,90.3 647.2,96.1 649.1,96.1 656.7,88 646.7,93.8 	"/>
	<polygon class="st23" points="696.3,67.8 703.6,72.4 706.8,62.2 701.5,70.2 	"/>
	<polygon class="st23" points="721.3,95.3 727.1,95.3 727.1,93.3 720.1,94.3 	"/>
	<polygon class="st23" points="640.8,128.3 632.2,139.8 629.2,139.8 623.1,132 629.8,136.2 	"/>
	<polygon class="st23" points="629.2,139.8 623.3,139.8 623.3,137.8 630.3,138.8 	"/>
	<polygon class="st23" points="702.5,71.7 703.7,74 705.2,72.9 703.2,71.7 	"/>
	<polygon class="st23" points="617.2,95.7 609,100.9 605.4,89.5 611.3,98.4 	"/>
	<polygon class="st23" points="610.1,100.1 608.8,102.7 607.2,101.4 609.4,100.1 	"/>
	<polygon class="st23" points="647.4,95.3 648.6,97.4 649.9,97.4 649.1,96.1 	"/>
	<polygon class="st23" points="665,85.3 677.8,83.4 675.4,85.3 669,92.5 667.7,86.7 664.2,86.7 	"/>
</g>
</svg>
