<?xml version="1.0" encoding="utf-8"?>
<!-- Generator: Adobe Illustrator 25.0.1, SVG Export Plug-In . SVG Version: 6.00 Build 0)  -->
<svg version="1.1" id="Layer_1" xmlns="http://www.w3.org/2000/svg" xmlns:xlink="http://www.w3.org/1999/xlink" x="0px" y="0px"
	 viewBox="0 0 1150.3 299.1" style="enable-background:new 0 0 1150.3 299.1;" xml:space="preserve">
<style type="text/css">
	.st0{fill:#9385B1;}
</style>
<path id="XMLID_323_" class="st0" d="M0,0c20.3,3.7,39.9,7.2,59.5,10.8c53,9.7,105.9,19.5,158.9,29.2c5.4,1,9.9,2.9,13.9,6.9
	c16.3,15.9,32.9,31.5,49.5,47.1c2.7,2.6,3,4.1,0.5,7.2c-54,65.5-107.8,131-161.7,196.6c-0.3,0.3-0.7,0.5-1.7,1.4
	C79.4,199.5,39.8,100.1,0,0z M118,253.3c0.3,0,0.7-0.1,1-0.1c1.9-15.5,3.8-31,5.7-46.6c3.2-26.4,6.4-52.8,9.6-79.3
	c0.4-3.4,0.8-6.3-2.6-9.1c-31.2-25.6-62.3-51.4-93.4-77.1c-1.6-1.3-3-3.3-5.5-1.9C61.2,110.6,89.6,182,118,253.3z M135.2,253
	c0.4,0.2,0.8,0.3,1.2,0.5c39.2-47.7,78.4-95.4,118.4-144c-34.8,6.3-68.3,12.3-101.9,18.3c-3.4,0.6-2.9,3.1-3.2,5.3
	c-3.3,26.8-6.7,53.7-9.9,80.5C138.1,226.8,136.7,239.9,135.2,253z M205.3,53.9c-54.5-10-107.4-19.7-160.8-29.6
	c0.5,1.1,0.6,1.6,0.8,1.8C76.5,52,107.8,77.9,139,103.9c3,2.5,4.7,1.4,7-0.6c16.6-13.9,33.3-27.8,50-41.7
	C198.7,59.4,201.4,57.1,205.3,53.9z M257.3,92.8C245.9,82,235.3,72,224.8,61.9c-1.6-1.5-2.8-1.4-4.4,0c-18.3,15.3-36.7,30.6-55,45.9
	c0.2,0.5,0.3,1,0.5,1.5C196.1,103.9,226.1,98.4,257.3,92.8z"/>
<g>
	<path class="st0" d="M1149.5,143.1c-2.6-10.4-9.6-17.6-17.7-23.9c-13.6-10.5-29.1-17.2-45.4-22.3c-2.6-0.8-3.3-1.8-2.7-4.5
		c3.3-15.1,5.2-30.4,3.8-45.9c-0.8-8.5-2.5-16.8-6.7-24.3c-4.5-8.1-11-13.2-20.3-14.7c-9-1.4-17.3,0.7-25.4,4
		c-16.2,6.4-29.8,16.9-42.6,28.4c-1.7,1.6-2.7,1.8-4.5,0.1c-8-7.3-16.6-14.1-25.9-19.8c-10.6-6.4-21.5-11.9-34.2-12.8
		c-11.6-0.8-20.9,2.9-27.3,12.8c-5.9,9.1-7.6,19.3-8.2,29.8c-0.8,14.4,1,28.6,4.1,42.7c0.6,2.6-0.2,3.5-2.5,4.1
		c-7.4,2.2-14.6,5-21.6,8.3c-12.8,6-24.9,13-34.1,24c-6.4,7.7-9.9,16.4-7.4,26.6c2.3,9.8,8.8,16.8,16.4,22.9
		c13.8,11.2,29.9,18.1,46.6,23.4c2.7,0.9,3.5,1.9,2.9,4.7c-3.3,14.8-5.1,29.7-3.8,44.9c0.7,8.3,2.2,16.4,6,23.9
		c5.6,11,14.7,16.8,27,16.5c8.1-0.2,15.8-2.6,23.2-6c14.7-6.7,27.4-16.4,39.3-27.2c1.6-1.5,2.5-1.5,4.1,0
		c9.4,8.6,19.4,16.4,30.6,22.6c10.1,5.6,20.5,10,30,10.2c12.9,0.1,21.2-4.1,27-13.1c5.5-8.6,7.4-18.3,7.9-28.2
		c0.9-15.1-0.7-30-4.1-44.6c-0.5-2.3,0.3-2.9,2.1-3.4c6.3-1.9,12.4-4.1,18.3-6.8c13.7-6.1,26.8-13.2,36.9-24.6
		C1148.2,163,1152.1,153.9,1149.5,143.1z M1001.6,50.9c12.5-11.3,25.7-21.5,41.8-27.3c3.2-1.1,6.5-1.8,9.8-2.2
		c7.2-0.9,12.9,2.7,16,10.2c2.3,5.4,3.3,11,3.7,16.8c0.2,3,0,6.1,0,9.1c0.4,10.7-1.4,21.2-3.4,31.7c-0.3,1.5-0.6,2.7-2.9,2.1
		c-11.9-2.8-24-5-36.2-6.2c-2.2-0.2-3.7-1.2-5-3.1c-7.3-9.9-15.1-19.4-23.6-28.3C1001.2,52.9,1000.1,52.3,1001.6,50.9z M915.4,191.5
		c2.4-8,5-15.9,8.4-24c5.5,10.6,11.3,20.5,17.8,30.6c-8.8-1.1-16.8-2.9-24.8-4.6C915.7,193.3,914.9,192.9,915.4,191.5z M915.2,107.6
		c-0.4-1.1,0-1.8,1.3-2.1c7.5-1.6,15.1-3.2,22.7-4.3c0.6-0.1,1.1-0.2,1.4,0.3c0.5,0.7-0.2,1.2-0.5,1.7c-5.7,9.1-11,18.5-16.3,28.5
		C920.2,123.6,917.7,115.6,915.2,107.6z M932.1,151.5c-0.6-1.3-0.5-2.4,0.1-3.6c7.7-16.4,16.7-31.9,26.8-46.9
		c1.1-1.7,2.5-2.4,4.5-2.6c8.9-0.6,17.8-0.9,27.1-0.8c8.5-0.2,17.4,0.3,26.3,0.8c1.7,0.1,2.7,0.7,3.7,2.1
		c10.3,15,19.4,30.7,27.3,47.1c0.6,1.3,0.7,2.3,0.1,3.6c-7.7,16.5-16.8,32.1-27,47.2c-1.1,1.6-2.5,2.3-4.3,2.4
		c-17.9,1.2-35.8,1.1-53.8,0c-1.5-0.1-2.6-0.7-3.5-2C949.2,183.8,940.1,168,932.1,151.5z M1038.6,100.9c9.1,1.3,17.1,2.8,25.1,4.7
		c1,0.2,1.6,0.6,1.2,1.8c-2.4,8.1-5.1,16-8.5,24.2C1051,121.1,1045.2,111.2,1038.6,100.9z M1056.4,167.1c3.5,8.3,6.1,16.2,8.6,24.2
		c0.5,1.6-0.4,2-1.5,2.2c-8,1.8-16,3.4-24.8,4.7C1045.1,187.9,1051,178,1056.4,167.1z M988.7,63.6c0.5-0.6,1-1.3,1.8-0.4
		c6.1,6.1,11.7,12.7,17.5,20.2c-12.3-0.8-23.7-1-36,0C977.5,75.9,983.1,69.8,988.7,63.6z M909.1,36.3c0.9-3.1,2.1-6,3.8-8.6
		c4.4-6.5,10.9-6.6,17.5-5.3c12.2,2.4,22.5,8.9,32.5,16c5.1,3.7,9.9,7.8,14.7,11.9c1.5,1.3,1.9,2.1,0.3,3.8
		c-8.4,8.7-16.1,18-23.1,27.8c-1.5,2.1-3.2,3-5.6,3.3c-12,1.2-23.9,3.3-35.6,6.1c-2,0.5-2.7,0.1-3.1-1.8c-2.2-10.8-3.7-21.6-4-33
		C906.7,49.9,907.2,43,909.1,36.3z M901.6,186.7c-0.5,1.7-0.9,2.6-3.1,1.9c-15.6-5.3-30.7-11.5-43.6-22.2c-3-2.5-5.5-5.2-7.6-8.4
		c-4.6-7-3.7-13.3,2.7-20.3c8.2-8.9,18.5-14.7,29.3-19.7c6-2.8,12.3-5,18.6-7.1c0.5-0.2,1-0.3,2-0.6c0.9-0.2,1.1,0.8,1.3,1.6
		c3.8,12.4,8.2,24.5,13.5,36.3c0.5,1.2,0.3,2.3-0.2,3.4C909.5,163,905.1,174.7,901.6,186.7z M978.5,248.3
		c-12.7,11.3-26,21.8-42.4,27.4c-3.8,1.3-7.8,1.9-11.8,1.8c-5.4-0.1-9.3-2.6-11.8-7.3c-4.3-7.9-5.3-16.4-5.3-25.2c0-1.1,0-2.2,0-3.8
		c-0.3-10.2,1.5-20.7,3.5-31.2c0.4-2,1-2.9,3.5-2.2c11.9,2.9,24,4.9,36.2,6.2c1.5,0.2,2.7,0.6,3.6,1.9c7.6,10.3,15.8,20.2,24.5,29.6
		C979.3,246.5,979.8,247.1,978.5,248.3z M991.4,235.3c-0.9,0.9-1.6,1-2.4,0c-5.7-6.1-11.2-12.3-16.5-19.3c11.9,0,23.4,0,35.5,0
		C1002.5,223.1,997.2,229.4,991.4,235.3z M1069.1,268.1c-3.6,7.6-9.2,10.3-17.6,8.9c-11.4-1.9-21.2-7.5-30.7-13.8
		c-6.7-4.5-12.8-9.7-18.9-15c-1.3-1.2-1-1.7,0-2.8c8.6-9.3,16.8-18.8,24-29.2c2.2-3.2,5.5-2.3,8.3-2.7c10.8-1.4,21.5-3.2,32-5.8
		c2.4-0.6,3,0.2,3.5,2.3c2.2,10.5,3.6,21.2,3.9,32.4C1073.4,250.9,1073,259.8,1069.1,268.1z M1128.9,162.9
		c-6.4,6.8-14.4,11.5-22.7,15.7c-7.8,4-15.9,7-24.1,9.8c-1.8,0.6-2.6,0.3-3.2-1.6c-3.6-12-7.9-23.7-13-35.1
		c-0.6-1.5-0.8-2.8-0.1-4.3c5.1-11.4,9.3-23.2,12.9-35.2c0.5-1.7,1-2.3,2.9-1.7c15.1,5.1,29.8,11,42.4,21.2
		c4.1,3.3,7.9,6.9,10.2,11.7c1,2,1.7,4,1.6,6.3C1135.6,155.1,1132.4,159.2,1128.9,162.9z"/>
	<path class="st0" d="M989.9,179.4c15.7,0.1,29.7-12.2,30-29.8c0.3-16.5-13.3-29.7-29.9-29.7c-16.6,0-29.9,13.3-29.9,29.8
		C960.2,165.8,973.7,179.3,989.9,179.4z"/>
</g>
<path class="st0" d="M711.1,35.6c-2.5-9.2-7.4-16.9-14.9-22.8c-8-6.3-17.1-9.8-27.4-9.8c-34.2,0-68.5,0-102.7,0
	C532,3,498,3,463.9,3.1c-3.1,0-6.2,0-9.4,0.9c-4.3,1.2-8.5,2.4-12.4,4.7c-14.4,8.6-22.5,21.2-22.5,38.1
	c-0.2,53.8-0.1,107.7-0.1,161.5c0,8.6-0.2,17.2,0,25.8c0.2,8.5-0.9,17.1,1,25.6c0.5,2.2,0.9,4.5,1.7,6.6c1.8,5.1,4.4,9.8,7.9,13.9
	c3.5,4.2,7.7,7.5,12.5,10.1c3,1.6,6,3,9.4,3.7c3.6,0.8,7.2,2,11,2c68.7,0.1,137.4,0,206,0c2.8,0,5.5-0.2,8.3-0.8
	c6-1.4,11.6-3.5,16.6-7.2c12-8.8,18.7-20.6,18.7-35.5c0.1-68.7,0-137.3,0.1-206C712.7,42.8,712.1,39.2,711.1,35.6z M566,227.5
	c-2.4,8.6-6.8,15.8-14.7,20.6c-6.4,3.8-13.4,5.5-20.8,5.8c-6.1,0.3-12.1,0.2-18-1.5c-8.8-2.6-16.2-7.2-21.8-14.6
	c-1.6-2.2-2.9-4.6-4.4-6.9c-0.7-1-0.6-1.8,0.7-2.5c6.1-3.2,12.1-6.5,18.1-9.8c2.3-1.3,2.5-1.1,3.9,0.9c2.3,3.4,4.3,7,7.8,9.4
	c3.9,2.7,8.1,3,12.5,2.4c3.7-0.5,6.8-2.2,8.8-5.5c1.5-2.5,1.7-5.3,2.2-8c0.3-1.8,0.3-3.6,0.3-5.5c0-30.1,0-60.2,0-90.3
	c0-2.6,0-2.6,2.7-2.6c7.3,0,14.5,0,21.8,0c2.2,0,2.4,0.2,2.4,2.4c0,15.7,0,31.4,0,47.1c0,10.3,0,20.7,0,31c0,3.4,0,6.9,0,10.3
	C567.6,216.1,567.5,221.9,566,227.5z M675.8,231.9c-2.7,6.7-7.1,12.1-13.2,16.1c-8.1,5.3-17.2,7.5-26.8,7.9
	c-7.5,0.4-14.9-0.3-22.1-2.4c-12.5-3.6-22.6-10.6-29.4-21.9c-2.2-3.6-2.2-3.7,1.3-5.7c5.9-3.4,11.9-6.8,17.8-10.3
	c1.5-0.9,2-0.3,2.7,0.8c2.9,4.5,6.5,8.5,11.2,11.2c5.5,3.2,11.4,3.9,17.6,3.5c4-0.3,7.8-1.4,11-4c6.9-5.5,6.4-15-1.1-20.4
	c-4.8-3.4-10.2-5.7-15.5-8c-8.9-3.8-17.9-7.5-25.4-13.8c-7.5-6.3-11.9-14.3-12.9-24.1c-0.6-5.7-0.4-11.3,1.3-16.8
	c2.4-7.8,7-13.9,13.8-18.5c7.3-5,16.7-7.1,25.3-7c8.1,0.1,15.9,1.5,23,5.6c5.7,3.3,10,8.1,13.5,13.6c2.3,3.7,1.7,3.2-1.3,5.2
	c-5.4,3.5-10.8,7-16.2,10.6c-1.6,1-2,0.9-3-0.7c-2-3.5-4.6-6.6-8.4-8.4c-6.2-2.9-15.2-2.4-19.2,3.4c-4.1,6-2.5,13.5,3.9,17.8
	c4.3,2.9,9.1,4.8,13.9,6.8c10.1,4.3,20.1,8.6,28.5,16c7.8,6.9,11.5,15.6,12.1,25.9C678.6,220.3,678,226.3,675.8,231.9z"/>
</svg>
